<svg xmlns="http://www.w3.org/2000/svg" width="52.189" height="17.242" viewBox="0 0 52.189 17.242"><defs><style>.a{fill:#969736;}.a,.b,.c{fill-rule:evenodd;}.b{fill:#cfb8b1;}.c{fill:#973a35;}</style></defs><g transform="translate(-567.504 -1154.757)"><path class="a" d="M588.592,1154.778c2.272-.031,2.3-.028,2.069,2.257-.066.651.362.771.727.96a52.428,52.428,0,0,1,8.722,5.691c1.253,1.012,1.341,1.691-.1,2.206-3.744,1.34-6.965,3.6-10.374,5.54-1.7.964-2.107.776-2.478-1.163-.3-1.555-.264-3.16-.407-4.741-.228-2.518-.633-5.01-.881-7.522-.053-.545.024-1.107-.065-1.643-.174-1.052.41-1.449,1.288-1.572A11.13,11.13,0,0,1,588.592,1154.778Zm1.829,6.717c-.049,1.545.162,1.662,1.878,1.033C591.643,1162.166,591.05,1161.84,590.421,1161.495Z"/><path class="b" d="M606.68,1155.909c1.152-.07,2.216-.2,2.311,1.286.032.491.437.449.767.528a18.083,18.083,0,0,1,8.54,5.221c2.008,1.995,1.9,1.906-.669,3.3-3.205,1.734-6.679,2.853-9.887,4.562a2.328,2.328,0,0,1-2.163.049c-.633-.337.034-1-.042-1.494-.3-1.955-.767-3.892-.96-5.857a23.133,23.133,0,0,1-.352-5.608C604.464,1156.178,605.24,1155.637,606.68,1155.909Z"/><path class="c" d="M567.506,1159.546c.128-1.005-.433-2.4,1.065-2.882,1.846-.6,3.489-.772,4.667.662,1.319,1.606,2.749,3.12,4.1,4.7,1.137,1.329,2.611,2.289,3.816,3.537.956.99.9,1.78-.358,2.3-3.593,1.5-7.214,3-11.238,2.767-.681-.039-1.4-.042-1.452-1.077C567.94,1166.238,567.714,1162.926,567.506,1159.546Zm6.311,2.7c-.01-.125-.022-.251-.033-.376l-.2.083.228.3c.125,1.679,1.548,2.95,1.36,4.819-.065.651,1.078.044,1.637-.063.72-.139.443-.587.135-.959A29.645,29.645,0,0,0,573.817,1162.242Z"/></g></svg>