<svg xmlns="http://www.w3.org/2000/svg" width="356.218" height="100.372" viewBox="0 0 356.218 100.372"><defs><style>.a{stroke:#707070;}</style></defs><g transform="translate(-602 -60)"><g transform="translate(-19.782 -7.067)"><path d="M633.484,92.87H639.8l8.434,21.694a5.436,5.436,0,0,0,1.218,2.135,3.364,3.364,0,0,0,1.965.383v3.888h-13.3v-3.888l.8-.02a2.97,2.97,0,0,0,1.552-.293.843.843,0,0,0,.443-.715,6.121,6.121,0,0,0-.382-1.491l-.838-2.557h-8.544l-1.054,2.84a4.742,4.742,0,0,0-.322,1.188.856.856,0,0,0,.232.584,1.4,1.4,0,0,0,.755.383,12.205,12.205,0,0,0,1.894.081v3.888H621.782v-3.888a4.709,4.709,0,0,0,1.53-.181,1.923,1.923,0,0,0,.795-.544,5.036,5.036,0,0,0,.7-1.35ZM632.641,108h5.58L635.5,100.28Z"/><path d="M648.413,92.87h12.368v3.887a7.725,7.725,0,0,0-1.481.081.957.957,0,0,0-.5.352.982.982,0,0,0-.212.614,7,7,0,0,0,.262,1.31l3.757,14.535,3.286-10.351-1.281-4.184a4.406,4.406,0,0,1-.161-.5,2.126,2.126,0,0,0-2.3-1.853V92.87h11.744v3.887h-.948a2.39,2.39,0,0,0-1.332.242,1.068,1.068,0,0,0-.423.867,8.018,8.018,0,0,0,.3,1.552l3.321,12.989,3.431-12.991a11.149,11.149,0,0,0,.382-1.672.84.84,0,0,0-.362-.735,2.592,2.592,0,0,0-1.37-.252h-1.027V92.87h10.675v3.887a4.164,4.164,0,0,0-1.641.233,2.036,2.036,0,0,0-.825.714,8.4,8.4,0,0,0-.8,2.034l-6.225,21.232h-6.083L667.7,109.736l-3.5,11.234h-6.326l-6.284-21.554a6.777,6.777,0,0,0-.7-1.823,1.91,1.91,0,0,0-.836-.634,4.337,4.337,0,0,0-1.641-.2Z"/><path d="M697.247,92.87h6.311l8.434,21.694a5.436,5.436,0,0,0,1.218,2.135,3.364,3.364,0,0,0,1.964.383v3.888H701.879v-3.888l.807-.02a2.969,2.969,0,0,0,1.551-.293.842.842,0,0,0,.443-.715,6.121,6.121,0,0,0-.382-1.491l-.838-2.557h-8.543l-1.054,2.84a4.742,4.742,0,0,0-.322,1.188.86.86,0,0,0,.231.584,1.4,1.4,0,0,0,.756.383,12.17,12.17,0,0,0,1.893.081v3.888H685.543v-3.888a4.7,4.7,0,0,0,1.531-.181,1.923,1.923,0,0,0,.8-.544,5.008,5.008,0,0,0,.7-1.35ZM696.4,108h5.581l-2.72-7.717Z"/><path d="M728.917,92.87h13.678v3.887H741.44a3.967,3.967,0,0,0-1.54.191,1.119,1.119,0,0,0-.527.6,6.255,6.255,0,0,0-.162,1.833v11.26a18.7,18.7,0,0,1-.282,3.847,7.946,7.946,0,0,1-1.833,3.425,9.556,9.556,0,0,1-3.717,2.618,14.25,14.25,0,0,1-5.408.927,13.021,13.021,0,0,1-5.73-1.149,9.179,9.179,0,0,1-3.717-3.162,7.358,7.358,0,0,1-1.35-4.149,4.546,4.546,0,0,1,1.149-3.2,3.7,3.7,0,0,1,2.84-1.249,3.574,3.574,0,0,1,1.742.393,2.9,2.9,0,0,1,1.148,1.188,3.506,3.506,0,0,1,.434,1.7v1.31a4.526,4.526,0,0,0,.524,2.115,2.855,2.855,0,0,0,1.263,1.208,4.193,4.193,0,0,0,1.989.464,3.716,3.716,0,0,0,2.464-.846,4.015,4.015,0,0,0,1.333-2.236,17.15,17.15,0,0,0,.2-3.344V98.832a4.943,4.943,0,0,0-.081-1.148,1.175,1.175,0,0,0-.554-.716,3.116,3.116,0,0,0-1.36-.211h-1.35Z"/><path d="M747.766,92.87h13.718v3.887h-1.249a3.543,3.543,0,0,0-1.441.191,1.172,1.172,0,0,0-.523.6,4.81,4.81,0,0,0-.171,1.582v15.551a5.7,5.7,0,0,0,.141,1.631.923.923,0,0,0,.483.524,2.626,2.626,0,0,0,1.27.242h1.49v3.888H747.766v-3.888h1.114a4.458,4.458,0,0,0,1.561-.171,1.086,1.086,0,0,0,.537-.544,4.154,4.154,0,0,0,.172-1.481V99.275a5.456,5.456,0,0,0-.172-1.723,1.264,1.264,0,0,0-.577-.633,3.507,3.507,0,0,0-1.378-.162h-1.257Z"/><path d="M782.781,96.757V92.87h15.962a15.611,15.611,0,0,1,5.756.856,7.086,7.086,0,0,1,3.22,2.458,5.969,5.969,0,0,1,1.127,3.514,6.04,6.04,0,0,1-.6,2.639,6.638,6.638,0,0,1-1.717,2.206,8.976,8.976,0,0,1-2.961,1.581,12.366,12.366,0,0,1,3.02,1.108,6.285,6.285,0,0,1,2.4,2.366,6.62,6.62,0,0,1,.885,3.395,6.932,6.932,0,0,1-1.347,4.119,8.359,8.359,0,0,1-3.812,2.87,20.29,20.29,0,0,1-7.21.988H782.781v-3.888h1.108a3.9,3.9,0,0,0,1.5-.192,1.118,1.118,0,0,0,.555-.544,4.738,4.738,0,0,0,.161-1.58V99.093a4.733,4.733,0,0,0-.161-1.59,1.177,1.177,0,0,0-.555-.544,3.715,3.715,0,0,0-1.5-.2Zm10.273,7.494h3.082a11.705,11.705,0,0,0,3.575-.4,3.463,3.463,0,0,0,1.743-1.219,3.154,3.154,0,0,0,.585-1.883,3.205,3.205,0,0,0-.555-1.894,2.992,2.992,0,0,0-1.6-1.118,14.192,14.192,0,0,0-3.746-.332h-3.082Zm0,4.129v6.083a7.689,7.689,0,0,0,.1,1.511.65.65,0,0,0,.331.393,4.014,4.014,0,0,0,1.257.111h2.05a11.138,11.138,0,0,0,2.965-.332,3.845,3.845,0,0,0,2-1.38,3.948,3.948,0,0,0,.824-2.519,3.7,3.7,0,0,0-.582-2.114,3.548,3.548,0,0,0-1.749-1.31,10.67,10.67,0,0,0-3.557-.443Z"/><path d="M812.879,92.87H826.6v3.887h-1.349a2.854,2.854,0,0,0-1.32.222,1.32,1.32,0,0,0-.574.634,4.97,4.97,0,0,0-.182,1.682v10.233a11.965,11.965,0,0,0,.576,4.271,4.43,4.43,0,0,0,1.736,2.145,5.152,5.152,0,0,0,2.814.735,5.466,5.466,0,0,0,2.948-.805,4.639,4.639,0,0,0,1.846-2.045,10.872,10.872,0,0,0,.555-4.1V98.449a2.072,2.072,0,0,0-.181-1.007,1.32,1.32,0,0,0-.644-.564,4.914,4.914,0,0,0-1.431-.121H830.3V92.87h11.6v3.887H841a4.964,4.964,0,0,0-1.671.162,1.487,1.487,0,0,0-.705.7,4.866,4.866,0,0,0-.162,1.672v11.079a13.1,13.1,0,0,1-.886,5.136,9.2,9.2,0,0,1-3.917,4.382,12.489,12.489,0,0,1-6.376,1.561,12.82,12.82,0,0,1-4.654-.8,10.71,10.71,0,0,1-3.595-2.276,8.5,8.5,0,0,1-2.156-3.132,14.757,14.757,0,0,1-.614-4.875V99.517a7,7,0,0,0-.161-1.924,1.151,1.151,0,0,0-.523-.634,3.28,3.28,0,0,0-1.411-.2h-1.289Z"/><path d="M845.912,92.87h17.336a24.375,24.375,0,0,1,3.658.3,9.1,9.1,0,0,1,3.589,1.329,7.375,7.375,0,0,1,2.489,2.6,7.086,7.086,0,0,1,.887,3.545,6.54,6.54,0,0,1-2.287,5.187,11.384,11.384,0,0,1-5.408,2.588l5.781,6.729.242.3a5.729,5.729,0,0,0,1.027,1.017,3.174,3.174,0,0,0,.927.474,4.615,4.615,0,0,0,1.289.141h1.209v3.888h-9.005l-9.023-12.107h-2.337v5.6a6.251,6.251,0,0,0,.161,1.843,1.121,1.121,0,0,0,.513.584,3.424,3.424,0,0,0,1.42.192h1.289v3.888H845.912v-3.888h1.256a3.36,3.36,0,0,0,1.409-.212,1.352,1.352,0,0,0,.618-.634,6.069,6.069,0,0,0,.1-1.51V98.912a4.048,4.048,0,0,0-.151-1.319.82.82,0,0,0-.5-.513,2.653,2.653,0,0,0-1.114-.222l-.568.02h-1.053Zm10.374,4.612v7.272h4.17a11.2,11.2,0,0,0,3.675-.453,3.832,3.832,0,0,0,1.833-1.3,3.4,3.4,0,0,0,.615-2.054,3.163,3.163,0,0,0-.575-1.9,3.343,3.343,0,0,0-1.631-1.179,11.125,11.125,0,0,0-3.455-.383Z"/><path d="M897.274,105.983h13.718v3.928h-1.028a3.548,3.548,0,0,0-1.38.181,1.154,1.154,0,0,0-.553.574,4.106,4.106,0,0,0-.182,1.5v8.8h-4.126l-1.067-2.015a15.2,15.2,0,0,1-3.925,1.873,14.3,14.3,0,0,1-4.227.625,13.408,13.408,0,0,1-12.006-7.111,15.41,15.41,0,0,1-1.842-7.534,14.911,14.911,0,0,1,1.821-7.392,13.353,13.353,0,0,1,5.093-5.147,13.981,13.981,0,0,1,7.095-1.883,14.818,14.818,0,0,1,3.694.473,11.824,11.824,0,0,1,3.149,1.259l.745-1.248h2.819l2.536,9.306-3.707,1.208a25.725,25.725,0,0,0-2.991-4.169,8.129,8.129,0,0,0-2.518-1.733,6.86,6.86,0,0,0-2.769-.624,6.327,6.327,0,0,0-3.577,1.108,7.489,7.489,0,0,0-2.628,3.233,12.382,12.382,0,0,0-.966,5.146,14.39,14.39,0,0,0,1.057,5.761,8.189,8.189,0,0,0,2.77,3.616,6.493,6.493,0,0,0,3.766,1.179,6.614,6.614,0,0,0,2.749-.585,4.113,4.113,0,0,0,1.784-1.309,3.48,3.48,0,0,0,.483-1.954v-1.027a3.853,3.853,0,0,0-.141-1.35,1.354,1.354,0,0,0-.594-.584,3.856,3.856,0,0,0-1.46-.181h-1.592Z"/><path d="M915,92.87h23.463l3.206,8.883-3.646,1.31a11.981,11.981,0,0,0-2.165-3.505,6.026,6.026,0,0,0-2.739-1.763,12.649,12.649,0,0,0-3.495-.434h-4.291v7.011h1.41a6.5,6.5,0,0,0,2.145-.232,1.488,1.488,0,0,0,.8-.725,5.2,5.2,0,0,0,.241-1.965v-1.067h3.586v11.9h-3.586v-1.215a4.147,4.147,0,0,0-.292-1.8,1.548,1.548,0,0,0-.8-.77,7.58,7.58,0,0,0-2.235-.2h-1.269v6.461a4.347,4.347,0,0,0,.1,1.253.693.693,0,0,0,.394.342,4,4,0,0,0,1.259.122h2.358a11.536,11.536,0,0,0,4.454-.76,8.5,8.5,0,0,0,3.234-2.448,11.99,11.99,0,0,0,2.187-4.017l3.68,1.27-3.689,10.447H915v-3.888h.705a5.823,5.823,0,0,0,1.893-.2,1.229,1.229,0,0,0,.685-.7,8.115,8.115,0,0,0,.1-1.713V99.154a4.863,4.863,0,0,0-.171-1.631,1.173,1.173,0,0,0-.534-.575,3.546,3.546,0,0,0-1.429-.191H915Z"/><path d="M947,92.87h17.335a24.389,24.389,0,0,1,3.66.3,9.092,9.092,0,0,1,3.587,1.329,7.352,7.352,0,0,1,2.49,2.6,7.086,7.086,0,0,1,.887,3.545,6.537,6.537,0,0,1-2.287,5.187,11.38,11.38,0,0,1-5.408,2.588l5.781,6.729.243.3a5.664,5.664,0,0,0,1.027,1.017,3.17,3.17,0,0,0,.926.474,4.62,4.62,0,0,0,1.289.141h1.209v3.888h-9l-9.025-12.107h-2.337v5.6a6.241,6.241,0,0,0,.162,1.843,1.126,1.126,0,0,0,.513.584,3.433,3.433,0,0,0,1.421.192h1.289v3.888H947v-3.888h1.256a3.351,3.351,0,0,0,1.408-.212,1.345,1.345,0,0,0,.619-.634,6.045,6.045,0,0,0,.1-1.51V98.912a4.042,4.042,0,0,0-.152-1.319.819.819,0,0,0-.5-.513,2.661,2.661,0,0,0-1.115-.222l-.567.02H947Zm10.373,4.612v7.272h4.17a11.209,11.209,0,0,0,3.677-.453,3.836,3.836,0,0,0,1.833-1.3,3.4,3.4,0,0,0,.614-2.054,3.162,3.162,0,0,0-.574-1.9,3.35,3.35,0,0,0-1.632-1.179,11.118,11.118,0,0,0-3.454-.383Z"/></g><g transform="translate(-19.782 -7.067)"><path d="M639.677,67.709h5.986v1.7h-.551a1.413,1.413,0,0,0-.62.092.516.516,0,0,0-.236.263,2.434,2.434,0,0,0-.07.744V72.64h4.465V70.345a2.023,2.023,0,0,0-.053-.571.466.466,0,0,0-.237-.29,2.143,2.143,0,0,0-.738-.079h-.466v-1.7h6v1.7h-.5a1.767,1.767,0,0,0-.677.083.469.469,0,0,0-.233.246,2.665,2.665,0,0,0-.066.77v6.645a2.313,2.313,0,0,0,.084.794.487.487,0,0,0,.254.255,2.5,2.5,0,0,0,.787.075h.352v1.7h-6v-1.7h.4a2.153,2.153,0,0,0,.752-.087.507.507,0,0,0,.272-.256,2.435,2.435,0,0,0,.075-.781V74.556h-4.465v2.593a3.253,3.253,0,0,0,.052.764.482.482,0,0,0,.271.29,2.494,2.494,0,0,0,.743.07h.411v1.7h-5.986v-1.7h.407a2.028,2.028,0,0,0,.716-.087.521.521,0,0,0,.279-.247,1.984,1.984,0,0,0,.075-.694V70.583a2.732,2.732,0,0,0-.075-.814.525.525,0,0,0-.235-.276,1.44,1.44,0,0,0-.618-.088h-.549Z"/><path d="M668.787,74.652V74a2.246,2.246,0,0,0-.1-.8.8.8,0,0,0-.352-.365,1.257,1.257,0,0,0-.632-.145,1.376,1.376,0,0,0-.528.1,1.064,1.064,0,0,0-.378.246,2.165,2.165,0,0,0-.325.58,1.838,1.838,0,0,1-.567.782,1.289,1.289,0,0,1-.778.237,1.261,1.261,0,0,1-.922-.351,1.163,1.163,0,0,1-.361-.87,1.618,1.618,0,0,1,.369-1.046,3.51,3.51,0,0,1,1.468-.993,5.915,5.915,0,0,1,2.2-.387,4.931,4.931,0,0,1,2.079.4,2.654,2.654,0,0,1,1.2.944A3.258,3.258,0,0,1,671.494,74v3.148a2.687,2.687,0,0,0,.061.741.591.591,0,0,0,.264.286.838.838,0,0,0,.448.124,2.172,2.172,0,0,0,.659-.141v1.714a4.73,4.73,0,0,1-1.432.237,3.258,3.258,0,0,1-1.38-.264,2.441,2.441,0,0,1-.958-.79,7.288,7.288,0,0,1-1.6.812,4.291,4.291,0,0,1-1.384.242,2.889,2.889,0,0,1-2.03-.708,2.268,2.268,0,0,1-.773-1.744,2.221,2.221,0,0,1,.268-1.081,2.52,2.52,0,0,1,.8-.861,5.307,5.307,0,0,1,1.644-.656A16.038,16.038,0,0,1,668.787,74.652Zm0,1.459a9.318,9.318,0,0,0-1.626.338,1.465,1.465,0,0,0-.677.431.856.856,0,0,0-.2.532.763.763,0,0,0,.263.589,1.026,1.026,0,0,0,.712.237,1.877,1.877,0,0,0,.673-.149,5.572,5.572,0,0,0,.857-.44Z"/><path d="M688.369,71.2h4.667v1.7a4.714,4.714,0,0,0-.686.036.762.762,0,0,0-.312.21,2.009,2.009,0,0,0-.33.519l-2.874,6.311H686.47l-3-6.5a1.279,1.279,0,0,0-.272-.378.617.617,0,0,0-.29-.158,3.058,3.058,0,0,0-.641-.036V71.2h5.388v1.7h-.281a1.512,1.512,0,0,0-.642.08.312.312,0,0,0-.167.272,1.265,1.265,0,0,0,.114.413l1.364,3.419,1.422-3.419a1.255,1.255,0,0,0,.123-.431.28.28,0,0,0-.184-.263,1.7,1.7,0,0,0-.624-.071h-.413Z"/><path d="M710.667,76.717l1.2,1.213a7.01,7.01,0,0,1-2.114,1.719,5.186,5.186,0,0,1-2.325.531,4.611,4.611,0,0,1-3.375-1.358,4.449,4.449,0,0,1-1.371-3.282,4.5,4.5,0,0,1,.615-2.316,4.343,4.343,0,0,1,1.7-1.644,5.078,5.078,0,0,1,2.47-.593,4.774,4.774,0,0,1,1.6.255,3.826,3.826,0,0,1,1.261.729,3.657,3.657,0,0,1,.87,1.147,5.092,5.092,0,0,1,.453,1.393,8.85,8.85,0,0,1,.052,1.143H705.8a2.619,2.619,0,0,0,.655,1.806,2.043,2.043,0,0,0,1.56.69,2.84,2.84,0,0,0,1.283-.356A5.141,5.141,0,0,0,710.667,76.717Zm-1.758-2.54a2.027,2.027,0,0,0-.251-.831,1.4,1.4,0,0,0-.512-.483,1.358,1.358,0,0,0-.674-.179,1.541,1.541,0,0,0-1.265.685,1.881,1.881,0,0,0-.269.808Z"/><path d="M737.3,67.709h10.142l1.39,3.911-1.591.554a6.142,6.142,0,0,0-.739-1.289,3.13,3.13,0,0,0-.834-.724,3.008,3.008,0,0,0-1.046-.387,9.721,9.721,0,0,0-1.336-.061h-1.512v3.252h.773a1.5,1.5,0,0,0,.69-.132.824.824,0,0,0,.361-.343,1.631,1.631,0,0,0,.11-.7v-.651h1.582v5.485h-1.582V75.83a1.487,1.487,0,0,0-.062-.5.894.894,0,0,0-.22-.343.8.8,0,0,0-.32-.185,2.734,2.734,0,0,0-.655-.052h-.677v2.575a1.646,1.646,0,0,0,.079.628.5.5,0,0,0,.255.242,1.9,1.9,0,0,0,.677.079h.5v1.7H737.3v-1.7h.4a1.492,1.492,0,0,0,.871-.171.876.876,0,0,0,.208-.69V70.363a1.673,1.673,0,0,0-.08-.642.5.5,0,0,0-.265-.237,2.228,2.228,0,0,0-.734-.079h-.4Z"/><path d="M758.3,71.2l4.105-.079v5.7a2.839,2.839,0,0,0,.074.809.663.663,0,0,0,.273.329.9.9,0,0,0,.5.128,2.381,2.381,0,0,0,.932-.211q.194-.088,1.028-.624V73.826a1.8,1.8,0,0,0-.07-.615.492.492,0,0,0-.2-.243,1.194,1.194,0,0,0-.513-.074h-.513V71.2l4.122-.079v6.293a1.977,1.977,0,0,0,.057.619.357.357,0,0,0,.184.185,1.942,1.942,0,0,0,.611.057h.466v1.7l-3.858.1V79.038a6.205,6.205,0,0,1-1.554.856,4.531,4.531,0,0,1-1.57.286,3.194,3.194,0,0,1-1.163-.206,2.659,2.659,0,0,1-.891-.554,2.182,2.182,0,0,1-.536-.813,3.457,3.457,0,0,1-.175-1.195V73.791a2.033,2.033,0,0,0-.058-.633.39.39,0,0,0-.19-.2,1.525,1.525,0,0,0-.566-.066H758.3Z"/><path d="M783.3,70.987v1.169a7.648,7.648,0,0,1,1.7-.923,4.376,4.376,0,0,1,1.446-.246,3.065,3.065,0,0,1,1.507.361,2.329,2.329,0,0,1,.954.9,3.216,3.216,0,0,1,.3,1.534v3.657a1.659,1.659,0,0,0,.065.6.4.4,0,0,0,.207.193,2.427,2.427,0,0,0,.633.044h.43v1.7h-5.159v-1.7a5.931,5.931,0,0,0,.659-.026.429.429,0,0,0,.29-.2,1.622,1.622,0,0,0,.071-.606V74.22a1.59,1.59,0,0,0-.132-.808.755.755,0,0,0-.668-.307,2.255,2.255,0,0,0-.809.167,5.905,5.905,0,0,0-1.16.684v3.483a1.214,1.214,0,0,0,.124.7.888.888,0,0,0,.595.131h.283v1.7h-5.106v-1.7h.255a3,3,0,0,0,.751-.053.4.4,0,0,0,.22-.184,1.186,1.186,0,0,0,.075-.518V73.43h-1.3v-1.7a11.882,11.882,0,0,0,2.955-.747Z"/><path d="M825.216,67.709h1.247l1.2,4.4-1.634.475a8.266,8.266,0,0,0-1.538-2.233,3.185,3.185,0,0,0-2.171-.9,2.908,2.908,0,0,0-1.6.475,3.241,3.241,0,0,0-1.177,1.4,5.015,5.015,0,0,0-.435,2.161,5.353,5.353,0,0,0,1,3.252,3.1,3.1,0,0,0,2.615,1.363,3.7,3.7,0,0,0,1.978-.589,6.913,6.913,0,0,0,2.047-1.96l1.363,1.01a10.188,10.188,0,0,1-2.424,2.523,6.8,6.8,0,0,1-3.777,1.1,6.028,6.028,0,0,1-3.131-.83,6.09,6.09,0,0,1-2.235-2.325,6.577,6.577,0,0,1-.835-3.261,6.424,6.424,0,0,1,.813-3.2,5.861,5.861,0,0,1,2.213-2.254,6.579,6.579,0,0,1,6.187-.07Z"/><path d="M842.248,67.067v4.878a7.448,7.448,0,0,1,1.538-.743,4.187,4.187,0,0,1,1.292-.215,3.069,3.069,0,0,1,1.489.355,2.387,2.387,0,0,1,.963.893,2.874,2.874,0,0,1,.307,1.433v3.665a2.661,2.661,0,0,0,.044.65.459.459,0,0,0,.264.246,2.436,2.436,0,0,0,.624.044h.413v1.7h-5.177v-1.7h.264a1.3,1.3,0,0,0,.519-.07.387.387,0,0,0,.193-.2,2.138,2.138,0,0,0,.053-.62V74.354a2.688,2.688,0,0,0-.075-.8.673.673,0,0,0-.267-.326.856.856,0,0,0-.482-.127,2.471,2.471,0,0,0-.863.168,5.257,5.257,0,0,0-1.1.614v3.5a2.157,2.157,0,0,0,.052.625.378.378,0,0,0,.2.193,1.481,1.481,0,0,0,.558.07h.191v1.7h-5.106v-1.7h.492a1.607,1.607,0,0,0,.55-.057.383.383,0,0,0,.18-.193,1.551,1.551,0,0,0,.061-.542V69.51h-1.283v-1.7a10.209,10.209,0,0,0,1.639-.251,11.024,11.024,0,0,0,1.639-.5Z"/><path d="M864.633,74.652V74a2.252,2.252,0,0,0-.1-.8.8.8,0,0,0-.352-.365,1.261,1.261,0,0,0-.633-.145,1.374,1.374,0,0,0-.527.1,1.064,1.064,0,0,0-.378.246,2.136,2.136,0,0,0-.325.58,1.838,1.838,0,0,1-.567.782,1.291,1.291,0,0,1-.778.237,1.263,1.263,0,0,1-.923-.351,1.166,1.166,0,0,1-.36-.87,1.619,1.619,0,0,1,.369-1.046,3.5,3.5,0,0,1,1.468-.993,5.915,5.915,0,0,1,2.2-.387,4.937,4.937,0,0,1,2.079.4,2.659,2.659,0,0,1,1.2.944A3.269,3.269,0,0,1,867.34,74v3.148a2.675,2.675,0,0,0,.062.741.593.593,0,0,0,.263.286.841.841,0,0,0,.449.124,2.172,2.172,0,0,0,.659-.141v1.714a4.736,4.736,0,0,1-1.433.237,3.258,3.258,0,0,1-1.38-.264,2.448,2.448,0,0,1-.958-.79,7.283,7.283,0,0,1-1.6.812,4.3,4.3,0,0,1-1.384.242,2.887,2.887,0,0,1-2.03-.708,2.269,2.269,0,0,1-.774-1.744,2.232,2.232,0,0,1,.268-1.081,2.533,2.533,0,0,1,.8-.861,5.3,5.3,0,0,1,1.644-.656A16.039,16.039,0,0,1,864.633,74.652Zm0,1.459a9.361,9.361,0,0,0-1.626.338,1.461,1.461,0,0,0-.676.431.858.858,0,0,0-.2.532.76.76,0,0,0,.264.589,1.026,1.026,0,0,0,.712.237,1.876,1.876,0,0,0,.672-.149,5.525,5.525,0,0,0,.857-.44Z"/><path d="M882.712,68.184V71.2h2.83V73.07h-2.83v3.059a4.869,4.869,0,0,0,.11,1.331.907.907,0,0,0,.409.47,1.718,1.718,0,0,0,.9.238,3.263,3.263,0,0,0,1.8-.589V79.46a7.141,7.141,0,0,1-1.384.5,5.859,5.859,0,0,1-1.341.145,4.609,4.609,0,0,1-1.445-.207,3.1,3.1,0,0,1-1.073-.589,2.121,2.121,0,0,1-.615-.813,3.52,3.52,0,0,1-.171-1.247V73.07H878.59V71.383a3.5,3.5,0,0,0,1.2-.656,3.289,3.289,0,0,0,.8-1.023,4.629,4.629,0,0,0,.417-1.52Z"/><path d="M899.992,68.184V71.2h2.83V73.07h-2.83v3.059a4.829,4.829,0,0,0,.11,1.331.906.906,0,0,0,.408.47,1.72,1.72,0,0,0,.9.238,3.261,3.261,0,0,0,1.8-.589V79.46a7.141,7.141,0,0,1-1.384.5,5.856,5.856,0,0,1-1.34.145,4.62,4.62,0,0,1-1.446-.207,3.085,3.085,0,0,1-1.072-.589,2.136,2.136,0,0,1-.616-.813,3.52,3.52,0,0,1-.171-1.247V73.07H895.87V71.383a3.511,3.511,0,0,0,1.2-.656,3.27,3.27,0,0,0,.8-1.023,4.629,4.629,0,0,0,.417-1.52Z"/><path d="M917.447,70.987v6.5a1.759,1.759,0,0,0,.052.571.359.359,0,0,0,.189.163,2,2,0,0,0,.611.057h.475v1.7h-5.432v-1.7h.466a2.081,2.081,0,0,0,.585-.049.348.348,0,0,0,.188-.161,1.1,1.1,0,0,0,.062-.458V73.413h-1.3V71.76a10.353,10.353,0,0,0,1.332-.149,9.228,9.228,0,0,0,1.138-.272,5.618,5.618,0,0,0,.8-.352Zm-1.424-3.92a1.643,1.643,0,1,1-1.125.479A1.551,1.551,0,0,1,916.023,67.067Z"/><path d="M932.7,70.987v1.169a7.666,7.666,0,0,1,1.7-.923,4.376,4.376,0,0,1,1.446-.246,3.069,3.069,0,0,1,1.508.361,2.326,2.326,0,0,1,.953.9,3.216,3.216,0,0,1,.3,1.534v3.657a1.651,1.651,0,0,0,.066.6.4.4,0,0,0,.206.193,2.439,2.439,0,0,0,.633.044h.431v1.7h-5.159v-1.7a5.965,5.965,0,0,0,.659-.026.434.434,0,0,0,.29-.2,1.629,1.629,0,0,0,.07-.606V74.22a1.589,1.589,0,0,0-.132-.808.754.754,0,0,0-.668-.307,2.25,2.25,0,0,0-.808.167,5.877,5.877,0,0,0-1.16.684v3.483a1.206,1.206,0,0,0,.124.7.887.887,0,0,0,.594.131h.284v1.7h-5.107v-1.7h.255a3.007,3.007,0,0,0,.752-.053.394.394,0,0,0,.219-.184,1.186,1.186,0,0,0,.075-.518V73.43h-1.3v-1.7a11.882,11.882,0,0,0,2.955-.747Z"/><path d="M956.813,71.711a3.218,3.218,0,0,1,.932-.938,1.881,1.881,0,0,1,.984-.278,1.09,1.09,0,0,1,.817.3,1.059,1.059,0,0,1,.3.778.976.976,0,0,1-.993,1l-.29-.009-.3-.009a.8.8,0,0,0-.474.176,2.978,2.978,0,0,1,.483,1.532,2.715,2.715,0,0,1-.479,1.506,3.191,3.191,0,0,1-1.327,1.136,4.69,4.69,0,0,1-2.035.4,6.194,6.194,0,0,1-.69-.04,6.711,6.711,0,0,1-.7-.118,1.676,1.676,0,0,0-.36.29.411.411,0,0,0-.123.262q0,.274.563.352l3.638.517a4.479,4.479,0,0,1,2.347.869,2.016,2.016,0,0,1,.721,1.545,2.273,2.273,0,0,1-.545,1.462,3.886,3.886,0,0,1-1.78,1.1,9.62,9.62,0,0,1-3.116.43,9.822,9.822,0,0,1-2.733-.32,3.416,3.416,0,0,1-1.534-.808,1.41,1.41,0,0,1-.453-.926,1.358,1.358,0,0,1,.339-.9,4.564,4.564,0,0,1,1.393-.917,2.509,2.509,0,0,1-.976-.581,1.358,1.358,0,0,1-.439-.941,1.644,1.644,0,0,1,.409-1.036,4.69,4.69,0,0,1,1.226-1.012,2.7,2.7,0,0,1-.717-.611,2.728,2.728,0,0,1-.422-.8,3.007,3.007,0,0,1-.162-.977,2.853,2.853,0,0,1,1.076-2.242,4.207,4.207,0,0,1,2.835-.923,5.309,5.309,0,0,1,1.428.181A3.717,3.717,0,0,1,956.813,71.711Zm-3.771,8.824a3,3,0,0,0-.593.549.725.725,0,0,0-.127.417q0,.429.7.671a5.672,5.672,0,0,0,1.8.241,6.443,6.443,0,0,0,1.415-.14,1.781,1.781,0,0,0,.817-.343.487.487,0,0,0,.132-.36.5.5,0,0,0-.264-.425,3.688,3.688,0,0,0-1.274-.294Zm1.275-7.86a1.183,1.183,0,0,0-.927.413,1.62,1.62,0,0,0-.365,1.116,1.486,1.486,0,0,0,.351,1.037,1.242,1.242,0,0,0,1.815-.014,1.466,1.466,0,0,0,.365-1.032,1.663,1.663,0,0,0-.347-1.112A1.116,1.116,0,0,0,954.317,72.675Z"/></g><line class="a" x2="179" transform="translate(779.218 123.902)"/><line class="a" x2="139" transform="translate(602.218 123.902)"/><g transform="translate(-19.782 -7.067)"><path d="M757.2,162.737a5.851,5.851,0,0,1-3.966-1.374,4.438,4.438,0,0,1-1.627-2.877c-.312-2.563.5-5.406,2.411-8.447a20.955,20.955,0,0,1,4.965-5.291,4.934,4.934,0,0,1,2.083-1.183c.033,0,.066,0,.1,0a1.118,1.118,0,0,1,.626.207c.163.107.173.2.177.231h0a12.853,12.853,0,0,1-1.589,1.891c-4.013,4.338-5.849,8.173-5.458,11.4a4.229,4.229,0,0,0,1.367,2.663,4.048,4.048,0,0,0,2.8,1.01c.191,0,.388-.009.59-.029,2.614-.257,5.3-2.046,7.973-5.317a96.112,96.112,0,0,0,10.233-15.959c1.634-3.12,2.888-5.763,3.726-7.859l.286-.716-.739.17a85.9,85.9,0,0,0-9.459,2.555,7.569,7.569,0,0,1-1.769.474,1.716,1.716,0,0,1-.188.01A1.655,1.655,0,0,1,768.8,134a.552.552,0,0,1-.273-.416c-.073-.59.973-1.051,1.6-1.273a77.743,77.743,0,0,1,18.421-3.969c1.049-.1,1.934-.156,2.631-.156a7.139,7.139,0,0,1,1.289.092c.555.114.853.306.885.573a.535.535,0,0,1-.107.424c-.175.223-.647.514-1.9.637-.477.047-1.12.1-1.933.14-.828.067-1.515.125-2.068.18q-.615.062-1.875.207l-.225.027-.091.211a121.944,121.944,0,0,1-9.747,18.587,38.346,38.346,0,0,1-9.61,10.38,16.924,16.924,0,0,1-7.7,3.047,8.958,8.958,0,0,1-.9.046Z"/><path d="M790.581,167.439a1.288,1.288,0,0,1-.716-.275c-.264-.181-.283-.331-.288-.381-.048-.394.322-1.932,3.341-7.8.664-1.286,1.325-2.52,1.982-3.731l.409-.751-.815.221a10.069,10.069,0,0,1-2.44.427,1.282,1.282,0,0,1-.682-.128,2.339,2.339,0,0,1-1.138-1.754,12.412,12.412,0,0,1-.04-1.39l.012-1.192-.666.981a16.964,16.964,0,0,1-1.822,2.276,6.014,6.014,0,0,1-3.648,1.98c-.16.016-.316.023-.467.023a3.028,3.028,0,0,1-2.133-.767,2.183,2.183,0,0,1-.706-1.4,8.444,8.444,0,0,1,1.586-5.28,16.563,16.563,0,0,1,5.408-5.434A10.047,10.047,0,0,1,792,141.554c.191-.018.374-.028.553-.028a3.689,3.689,0,0,1,1.61.333c.439.219.681.476.716.762a2.289,2.289,0,0,1-.357,1.161l-.14.276.246.185c.389.291.437.459.443.5s0,.361-.668,1.324a14.79,14.79,0,0,0-1.589,3.07,6.972,6.972,0,0,0-.672,3.264c.13,1.063,1.191,1.068,1.591,1.071a7.306,7.306,0,0,0,2.385-.593l.122-.046.064-.115a121.431,121.431,0,0,1,7.2-11.374c.749-1.054,1.207-1.715,1.443-2.083.581-.909,1.18-1.4,1.78-1.458.068-.006.134-.01.2-.01.476,0,.6.187.63.47.013.1-.015.428-.55,1.151-.55.792-.981,1.419-1.3,1.889l.465.529c.835-.456,1.463-.779,1.869-.96a8.034,8.034,0,0,1,2.444-.66q.306-.03.582-.03a2.715,2.715,0,0,1,1.418.319,1.661,1.661,0,0,1,.746,1.316,6.066,6.066,0,0,1-1.107,3.555,17.916,17.916,0,0,1-3.306,4.155l-.073.068-.029.1a3.174,3.174,0,0,0-.163,1.331c.126,1.041,1.282.942,1.777.942h.135a11.566,11.566,0,0,0,3.225-.619,12.384,12.384,0,0,1,1.663-.4l.371-.036-.1-.45a.775.775,0,0,1-.021-.1,8.429,8.429,0,0,1,1.586-5.278,16.557,16.557,0,0,1,5.408-5.432,10.034,10.034,0,0,1,4.242-1.516,5.336,5.336,0,0,1,.555-.029,3.67,3.67,0,0,1,1.607.334c.44.219.682.476.717.761a2.281,2.281,0,0,1-.357,1.162l-.14.278.247.184c.39.29.437.457.443.5s0,.362-.668,1.325a14.822,14.822,0,0,0-1.589,3.07,6.971,6.971,0,0,0-.672,3.264c.129,1.062,1.191,1.068,1.591,1.072a7.9,7.9,0,0,0,2.566-.659c.232-.087.457-.171.666-.243l.156-.053.062-.156A42.143,42.143,0,0,1,834.595,144a44.8,44.8,0,0,1,2.71-4.285,3.012,3.012,0,0,1,1.675-1.324.875.875,0,0,1,.135-.009,1.2,1.2,0,0,1,.519.127c.221.105.345.226.366.357.009.052.018.355-.642,1.191a23.455,23.455,0,0,0-1.844,2.73l.538.465c.256-.212.5-.424.737-.633,3.959-3.463,6.709-5.318,8.167-5.513a2.414,2.414,0,0,1,.317-.023c.545,0,.658.229.7.477.029.173-.035.579-.785,1.364-3.722,3.873-5.324,7.012-4.9,9.6a3.874,3.874,0,0,0,1.475,2.352c.412.334.451.48.453.49h0a.559.559,0,0,1-.179.2,1.319,1.319,0,0,1-.777.357,2.5,2.5,0,0,1-2.136-.729,3.67,3.67,0,0,1-1.184-2.232c-.3-1.83.433-4.051,2.186-6.6l-.476-.525a21.105,21.105,0,0,0-7.24,7.851,2.309,2.309,0,0,1-1.623,1.238,1.543,1.543,0,0,1-.23.016,1.077,1.077,0,0,1-.51-.114.98.98,0,0,1-.206-.136l-.163-.136-.2.078c-.092.037-.174.069-.234.089a17.6,17.6,0,0,1-4.351,1.016,1.287,1.287,0,0,1-.685-.128,2.337,2.337,0,0,1-1.136-1.754,11.917,11.917,0,0,1-.04-1.39l.012-1.193-.667.981a16.856,16.856,0,0,1-1.822,2.277,6,6,0,0,1-3.647,1.98c-.154.015-.3.022-.447.022a3.1,3.1,0,0,1-1.932-.609l-.173-.129-.194.094a21.742,21.742,0,0,1-2.3.871,27.355,27.355,0,0,1-5.746,1.146,1.914,1.914,0,0,1-.831-.127,2.244,2.244,0,0,1-1.341-1.521l-.1-.467-.415.224a11.922,11.922,0,0,1-1.406.645l-.019.007a9.226,9.226,0,0,1-2.337.569q-.255.024-.512.024a6.014,6.014,0,0,1-2.216-.447l-.345-.136-.124.354a.409.409,0,0,1-.121.169l-.04.038-.027.048a113.422,113.422,0,0,0-6.338,12.71c-.332.912-.762,1.393-1.284,1.443Zm.751-24.2c-.084,0-.171,0-.259.013-1.743.172-3.517,1.361-5.272,3.536-1.957,2.43-2.813,4.384-2.62,5.972a1.437,1.437,0,0,0,.557,1.043,1.556,1.556,0,0,0,.941.27,2.455,2.455,0,0,0,.265-.014c1.158-.113,2.346-1,3.634-2.7a35.174,35.174,0,0,0,2.493-3.889,17.816,17.816,0,0,1,1.378-2.143,3.831,3.831,0,0,1,.8-.653l.371-.252-.324-.315a3.08,3.08,0,0,0-1.055-.7A2.557,2.557,0,0,0,791.332,143.238Zm12.188,4.732c-.8,0-1.73.774-2.55,1.081-.2.078-.4.365-.591.43l-.119.148-.067.16c-.326.521-.572.935-.736,1.187l-.216.346.345.2a3.3,3.3,0,0,0,1.608.388,4.384,4.384,0,0,0,.451-.021,6.937,6.937,0,0,0,3.262-1.323l.093-.109v-.29c0-.094.068-.614.058-.7a1.73,1.73,0,0,0-1.522-1.5Zm22.657-8.151a2.554,2.554,0,0,0-.262.013c-1.742.169-3.516,1.36-5.272,3.533-1.956,2.432-2.812,4.386-2.619,5.974a1.44,1.44,0,0,0,.557,1.043,1.552,1.552,0,0,0,.941.271,2.488,2.488,0,0,0,.266-.014c1.156-.114,2.344-1,3.632-2.7a34.891,34.891,0,0,0,2.494-3.891,17.766,17.766,0,0,1,1.377-2.141,3.763,3.763,0,0,1,.8-.653l.372-.253-.323-.315a3.092,3.092,0,0,0-1.056-.7A2.575,2.575,0,0,0,826.177,139.819Zm-20.962,7.321a1.269,1.269,0,0,1,.682.128,2.44,2.44,0,0,1,.924,1.04l.225.488.362-.393c.252-.275.505-.561.758-.869a12.869,12.869,0,0,0,1.909-3,3.989,3.989,0,0,0,.478-1.923,1.051,1.051,0,0,0-.531-.832,1.578,1.578,0,0,0-.778-.169c-.1,0-.2.005-.317.016a7.564,7.564,0,0,0-3.763,1.848,16.436,16.436,0,0,0-3.258,3.672l-.564.838.959-.281A11.471,11.471,0,0,1,805.215,147.14Z"/></g></g></svg>